<svg xmlns="http://www.w3.org/2000/svg" xmlns:xlink="http://www.w3.org/1999/xlink" viewBox="0 0 64 64" id="chart">
  <defs>
    <linearGradient id="a" x1="10.8" x2="43.12" y1="10.05" y2="49.73" gradientUnits="userSpaceOnUse">
      <stop offset="0" stop-color="#00fcff"></stop>
      <stop offset="1" stop-color="#001e94"></stop>
    </linearGradient>
    <linearGradient xlink:href="#a" id="b" x1="27.17" x2="59.48" y1="-3.28" y2="36.4"></linearGradient>
  </defs>
  <path fill="url(#a)" d="m32,56c12.89.27,24.27-11.11,24-24,0-.55-.45-1-1-1h-22V9c0-.55-.45-1-1-1-12.89-.27-24.27,11.11-24,24,0,13.23,10.77,24,24,24Z"></path>
  <path fill="url(#b)" d="m37,28h23c.55,0,1-.45,1-1,0-6.41-2.5-12.43-7.03-16.97-4.53-4.54-10.56-7.03-16.97-7.03-.55,0-1,.45-1,1v23c0,.55.45,1,1,1Z"></path>
</svg>
