<svg xmlns="http://www.w3.org/2000/svg" width="163.839" height="163.839" fill-rule="evenodd" clip-rule="evenodd" image-rendering="optimizeQuality" shape-rendering="geometricPrecision" text-rendering="geometricPrecision" viewBox="0 0 1707 1707" id="chip">
  <defs>
    <linearGradient id="a" x1="-64.205" x2="1770.87" y1="88.716" y2="1617.94" gradientUnits="userSpaceOnUse">
      <stop offset="0" stop-color="#08b6ff"></stop>
      <stop offset=".012" stop-color="#2790ff"></stop>
      <stop offset=".259" stop-color="#47c7ff"></stop>
      <stop offset=".478" stop-color="#4cc9ff"></stop>
      <stop offset=".8" stop-color="#4a9eff"></stop>
      <stop offset=".929" stop-color="#466aff"></stop>
      <stop offset="1" stop-color="#466aff"></stop>
    </linearGradient>
  </defs>
  <path fill="url(#a)" d="M1255 1307l-138 0 0 77 104 104c3,3 5,8 5,12l0 95c0,9 -7,17 -17,17 -9,0 -16,-8 -16,-17l0 -88 -105 -104c-3,-4 -5,-8 -5,-12l0 -84 -107 0 0 268c0,10 -8,17 -17,17 -9,0 -17,-7 -17,-17l0 -268 -122 0 0 268c0,10 -7,17 -17,17 -9,0 -16,-7 -16,-17l0 -268 -108 0 0 98c0,5 -2,9 -5,12l-104 105 0 43c31,8 55,36 55,70 0,39 -33,72 -72,72 -40,0 -72,-33 -72,-72 0,-34 24,-63 56,-70l0 -50c0,-5 1,-9 4,-12l105 -105 0 -91 -194 0c-29,0 -53,-23 -53,-52l0 -177 -75 0 -100 100c-3,3 -7,5 -12,5l-75 0c-9,0 -17,-8 -17,-17 0,-9 8,-16 17,-16l68 0 100 -100c3,-3 7,-5 12,-5l82 0 0 -112 -262 0c-9,0 -17,-8 -17,-17 0,-9 8,-17 17,-17l262 0 0 -93 -247 0c-8,32 -36,56 -70,56 -40,0 -72,-33 -72,-72 0,-40 32,-72 72,-72 34,0 62,23 70,55l247 0 0 -108 -72 0c-5,0 -9,-1 -12,-5l-112 -111 -66 0c-9,0 -17,-8 -17,-17 0,-9 8,-17 17,-17l73 0c4,0 9,2 12,5l111 112 66 0 0 -181c0,-28 24,-52 53,-52l138 0 0 -76 -104 -105c-4,-3 -5,-7 -5,-11l0 -95c0,-9 7,-17 16,-17 10,0 17,8 17,17l0 88 104 104c4,3 5,7 5,12l0 83 108 0 0 -268c0,-9 7,-16 17,-16 9,0 16,7 16,16l0 268 123 0 0 -268c0,-9 7,-16 16,-16 9,0 17,7 17,16l0 268 107 0 0 -98c0,-4 2,-8 5,-11l105 -105 0 -43c-32,-8 -55,-36 -55,-70 0,-40 32,-72 72,-72 40,0 72,32 72,72 0,34 -24,63 -56,70l0 50c0,4 -2,9 -5,12l-104 104 0 91 194 0c29,0 52,24 52,52l0 165 76 0 100 -100c3,-3 7,-5 11,-5l76 0c9,0 16,7 16,17 0,9 -7,16 -16,16l-69 0 -99 100c-3,3 -8,5 -12,5l-83 0 0 112 263 0c9,0 16,8 16,17 0,9 -7,17 -16,17l-263 0 0 93 248 0c8,-32 36,-56 70,-56 40,0 72,33 72,72 0,40 -32,72 -72,72 -34,0 -62,-23 -70,-55l-248 0 0 108 73 0c5,0 9,1 12,5l112 111 66 0c9,0 16,8 16,17 0,9 -7,17 -16,17l-73 0c-5,0 -9,-2 -12,-5l-112 -112 -66 0 0 193c0,29 -23,52 -52,52zm-402 -260c-106,0 -193,-87 -193,-194 0,-106 87,-193 193,-193 0,0 0,0 0,0 52,0 101,20 137,56 37,37 57,86 57,137 0,107 -87,194 -194,194zm0 -354c-88,0 -160,72 -160,160 0,89 72,161 160,161 89,0 161,-72 161,-161 0,-42 -17,-83 -47,-113 -31,-30 -71,-47 -114,-47z"></path>
</svg>
